<svg xmlns="http://www.w3.org/2000/svg" version="1.1" x="0" y="0" width="49" height="49" viewBox="0 0 49 49" enable-background="new 0 0 49 49" xml:space="preserve"><path fill="#323232" d="M24.5 0C11 0 0 11 0 24.5 0 38 11 49 24.5 49 38 49 49 38 49 24.5 49 11 38 0 24.5 0zM24.5 47C12.1 47 2 36.9 2 24.5 2 12.1 12.1 2 24.5 2 36.9 2 47 12.1 47 24.5 47 36.9 36.9 47 24.5 47zM34.8 19.3c0.9-1.7 1.9-5 0.4-9.5 -0.1-0.4-0.5-0.6-0.9-0.7 -0.4 0-0.8 0.2-1 0.5 -1.3 2.3-4 5.9-6 6.1 0 0-0.1 0-0.1 0C25.8 15.5 24.6 15.5 24.5 15.5c-0.1 0-1.3 0-2.8 0.3 0 0 0 0-0.1 0 -2-0.2-4.8-3.8-6-6.1 -0.2-0.3-0.6-0.5-1-0.5 -0.4 0-0.7 0.3-0.9 0.7 -1.4 4.5-0.4 7.8 0.4 9.5 -1.7 0.2-4 0.8-4.8 2.2 -0.4 0.7-0.4 1.5 0 2.2 0.5 0.9 1.4 1.2 2.3 1.2 0.8 0 1.7-0.2 2.3-0.5 0 0.5 0 1.1 0.1 1.6 0.3 1.5 1.1 3.6 1.7 5.2 0.2 0.5 0.4 1 0.5 1.3 -0.2 0.6-0.7 1.8-0.8 2.5 -0.1 0.8 0.1 2.1 1.1 3.3 1.4 1.7 4 2.5 7.6 2.5 3.6 0 6.2-0.8 7.6-2.5 1-1.2 1.2-2.5 1.1-3.3 -0.1-0.7-0.5-1.9-0.8-2.5 0.1-0.3 0.3-0.8 0.5-1.3 0.6-1.6 1.5-3.7 1.8-5.2 0.1-0.5 0.1-1.1 0.1-1.6 0.7 0.2 1.5 0.5 2.3 0.5 0.9 0 1.8-0.3 2.3-1.2 0.4-0.7 0.4-1.5 0-2.2C38.8 20.1 36.6 19.6 34.8 19.3zM33.9 12.7c0.4 3.1-0.5 5.2-1 6.1 -0.2-0.3-0.5-0.6-0.8-0.9 -0.5-0.5-1.2-0.9-1.9-1.3C31.6 15.6 32.9 14 33.9 12.7zM15.1 12.7c0.9 1.3 2.2 2.9 3.7 4 -0.7 0.3-1.4 0.7-1.9 1.3 -0.3 0.3-0.5 0.6-0.8 0.9C15.6 17.9 14.7 15.8 15.1 12.7zM11.2 22.8c-0.1-0.2-0.1-0.2 0-0.2 0.2-0.4 1.4-1 3.6-1.2 -0.1 0.3-0.2 0.6-0.3 0.9C13.2 22.8 11.5 23.3 11.2 22.8zM32.8 25.7c-0.3 1.3-1.1 3.4-1.6 4.8 -0.4 1-0.6 1.6-0.7 1.9l-0.1 0.3 0.1 0.3c0.3 0.7 0.7 1.9 0.8 2.4 0 0 0.1 0.9-0.6 1.7 -0.7 0.8-2.4 1.8-6.1 1.8 -3.7 0-5.4-1-6.1-1.8 -0.7-0.9-0.7-1.7-0.6-1.7 0.1-0.4 0.5-1.6 0.8-2.4l0.1-0.3L18.6 32.5c-0.1-0.3-0.3-0.9-0.7-1.9 -0.6-1.5-1.4-3.5-1.6-4.8 -0.4-2.2 0.4-4.6 2.1-6.4 1.5-1.5 4.9-1.9 6.1-1.9 1.2 0 4.5 0.3 6.1 1.9C32.7 21.4 33.1 24 32.8 25.7zM37.8 22.8c-0.3 0.5-2 0.1-3.2-0.6 -0.1-0.3-0.2-0.6-0.3-0.9 2.2 0.2 3.4 0.8 3.6 1.2C37.9 22.6 37.9 22.6 37.8 22.8z"/></svg>
