<svg xmlns="http://www.w3.org/2000/svg" version="1.1" x="0" y="0" width="49" height="49" viewBox="0 0 49 49" enable-background="new 0 0 49 49" xml:space="preserve"><path fill="#323232" d="M24.5 0C11 0 0 11 0 24.5 0 38 11 49 24.5 49 38 49 49 38 49 24.5 49 11 38 0 24.5 0zM24.5 47C12.1 47 2 36.9 2 24.5 2 12.1 12.1 2 24.5 2 36.9 2 47 12.1 47 24.5 47 36.9 36.9 47 24.5 47zM24.5 7.6c-4.4 0-7.9 3.3-8.4 7.5H16v16.9h17V15.1h-0.1C32.4 10.9 28.9 7.6 24.5 7.6zM31 30H18v-9.3c0.3 0.3 0.7 0.6 1.5 0.6 1.3 0 2.1-0.7 2.1-1.6 0-0.4 0-0.9 0-0.9 0 0 0 0 0 0 0-0.5 0.4-0.9 0.9-0.9 0.5 0 0.9 0.4 0.9 0.9 0 0 0 0 0 0 0 0 0 0 0 0 0 0.8 0 3.3 0 3.3s0 1.8 2.1 1.8c2.1 0 2.1-1.7 2.1-1.7v-2.2h0c0 0 0 0 0 0 0-0.7 0.6-1.3 1.3-1.3s1.3 0.6 1.3 1.3c0 0 0 0.1 0 0.1s0 0.6 0.7 0.9V30zM23 40.1c0 0.8 0.7 1.5 1.5 1.5 0.8 0 1.5-0.7 1.5-1.5V33h-3V40.1z"/></svg>
