<svg xmlns="http://www.w3.org/2000/svg" version="1.1" x="0" y="0" width="49" height="49" viewBox="0 0 49 49" enable-background="new 0 0 49 49" xml:space="preserve"><path fill="#323232" d="M24.5 0C11 0 0 11 0 24.5 0 38 11 49 24.5 49 38 49 49 38 49 24.5 49 11 38 0 24.5 0zM24.5 47C12.1 47 2 36.9 2 24.5 2 12.1 12.1 2 24.5 2 36.9 2 47 12.1 47 24.5 47 36.9 36.9 47 24.5 47zM34.8 26.8c-0.4-9.5-9.2-18.7-9.6-19.1 0 0 0 0 0 0 0 0-0.1-0.1-0.1-0.1 0 0-0.1-0.1-0.1-0.1 0 0 0 0-0.1 0 0 0-0.1 0-0.1 0 0 0-0.1 0-0.1 0 -0.1 0-0.1 0-0.2 0 0 0-0.1 0-0.1 0 -0.1 0-0.1 0-0.2 0 0 0-0.1 0-0.1 0 0 0 0 0 0 0 0 0-0.1 0-0.1 0.1 0 0-0.1 0.1-0.1 0.1 0 0 0 0 0 0 -0.4 0.4-9.1 9.6-9.6 19.1 0 0.1 0 0.1 0 0.2 0 0.4 0 0.7 0 1.1 0.4 10.3 10 12.8 10.1 12.8 0.1 0 0.2 0 0.2 0s0.2 0 0.2 0c0.1 0 9.7-2.6 10.1-12.8 0-0.4 0-0.7 0-1.1C34.8 26.9 34.8 26.8 34.8 26.8zM16.8 23.3c2.2 2.1 5.4 3.5 6.7 4.1v4.6c-2.4-1.2-6.2-3.3-7.3-5.2C16.3 25.5 16.5 24.4 16.8 23.3zM18.8 18.2c1.5 1.7 3.6 2.6 4.7 3.1v3.9c-1.7-0.8-4.4-2.2-6-4C17.9 20.1 18.3 19.1 18.8 18.2zM31.5 21.1c-1.6 1.8-4.4 3.3-6 4v-3.9c1.1-0.4 3.2-1.4 4.7-3.1C30.7 19.1 31.1 20.1 31.5 21.1zM25.5 19v-8c1 1.3 2.4 3.1 3.7 5.2C28.2 17.6 26.6 18.5 25.5 19zM25.5 31.9v-4.6c1.4-0.6 4.5-2 6.7-4.1 0.3 1.1 0.5 2.3 0.6 3.4C31.7 28.5 27.9 30.7 25.5 31.9zM23.5 19.1c-1.1-0.5-2.7-1.4-3.6-2.8 1.3-2.1 2.6-3.9 3.6-5.2V19.1zM16.4 29.8c2.3 2 5.7 3.6 7.1 4.3v4.4C21.4 37.6 17.3 35.2 16.4 29.8zM25.5 38.5v-4.4c1.4-0.7 4.8-2.3 7.1-4.3C31.7 35.2 27.6 37.6 25.5 38.5z"/></svg>
