<svg xmlns="http://www.w3.org/2000/svg" version="1.1" x="0" y="0" width="80" height="140" viewBox="0 0 80 140" enable-background="new 0 0 80 140" xml:space="preserve"><path fill="#E84D37" d="M40 7.1c15.6 0 28.3 12.7 28.3 28.3 0 5.1-1.4 9.9-3.7 14 4.5 0.6 8 4.5 8 9.2 0 5.1-4.2 9.3-9.3 9.3 -4.7 0-8.5-3.5-9.2-8 -0.4 0.2-0.7 0.4-1.1 0.6C52 66.8 46.5 71.6 40 71.6c-6.5 0-12-4.8-13-11 -0.4-0.2-0.7-0.4-1.1-0.6 -0.6 4.5-4.5 8-9.2 8 -5.1 0-9.3-4.2-9.3-9.3 0-4.7 3.5-8.5 8-9.2 -2.4-4.1-3.7-8.9-3.7-14C11.7 19.8 24.4 7.1 40 7.1M40 0.1c-19.5 0-35.3 15.8-35.3 35.3 0 3.6 0.6 7.3 1.7 10.7 -3.6 3-5.9 7.6-5.9 12.5 0 9 7.3 16.3 16.3 16.3 3.2 0 6.1-0.9 8.7-2.5 3.7 3.8 8.9 6.2 14.6 6.2s10.9-2.3 14.6-6.2c2.5 1.6 5.5 2.5 8.7 2.5 9 0 16.3-7.3 16.3-16.3 0-5-2.3-9.5-5.9-12.5 1.1-3.4 1.7-7.1 1.7-10.7C75.3 15.9 59.5 0.1 40 0.1L40 0.1z"/><path fill="#E84D37" d="M63.2 78.9c-2.8 0-5.6-0.6-8-1.7 -0.4 0.3-0.8 0.6-1.1 0.9l0.5 0.5 -3.9 3.9 -1.7-1.7c-0.7 0.3-1.4 0.5-2.1 0.7l2.4 2.4 -3.9 3.9 -3.9-3.9 1.6-1.6c-1 0.1-2 0.2-3 0.2 -1 0-2-0.1-2.9-0.2l1.5 1.5 -3.9 3.9 -3.9-3.9 2.3-2.3c-0.7-0.2-1.4-0.5-2.1-0.7l-1.6 1.6 -3.9-3.9 0.5-0.5c-0.4-0.3-0.8-0.6-1.2-0.9 -2.5 1.1-5.2 1.7-8 1.7 -0.2 0-0.4 0-0.6 0 -0.1 0.5 0 1.1 0.2 1.6l20.4 57.1c0 0.1 0.1 0.1 0.1 0.2 0 0.1 0.1 0.1 0.1 0.2 0.1 0.1 0.2 0.3 0.2 0.4 0 0 0.1 0.1 0.1 0.1 0.1 0.2 0.3 0.3 0.4 0.5 0 0 0.1 0.1 0.1 0.1 0.1 0.1 0.3 0.2 0.4 0.3 0.1 0 0.1 0.1 0.2 0.1 0.1 0.1 0.3 0.1 0.4 0.2 0 0 0.1 0 0.1 0.1 0 0 0 0 0.1 0 0.1 0 0.3 0.1 0.4 0.1 0.1 0 0.1 0 0.2 0 0.2 0 0.4 0 0.6 0s0.4 0 0.6 0c0.1 0 0.1 0 0.2 0 0.1 0 0.3-0.1 0.4-0.1 0 0 0 0 0.1 0 0 0 0.1 0 0.1-0.1 0.1-0.1 0.3-0.1 0.4-0.2 0.1 0 0.1-0.1 0.2-0.1 0.1-0.1 0.3-0.2 0.4-0.3 0 0 0.1-0.1 0.1-0.1 0.2-0.1 0.3-0.3 0.4-0.5 0 0 0.1-0.1 0.1-0.1 0.1-0.1 0.2-0.3 0.2-0.4 0-0.1 0.1-0.1 0.1-0.2 0-0.1 0.1-0.1 0.1-0.2L63.7 80.5c0.2-0.5 0.2-1.1 0.2-1.6C63.6 78.9 63.4 78.9 63.2 78.9zM49.3 94.5l-3.9 3.9 -3.9-3.9 3.9-3.9L49.3 94.5zM36.1 99.9l3.9-3.9 3.9 3.9 -3.9 3.9L36.1 99.9zM43.9 110.5l-3.9 3.9 -3.9-3.9 3.9-3.9L43.9 110.5zM40 85.3l3.9 3.9 -3.9 3.9 -3.9-3.9L40 85.3zM38.6 94.5l-3.9 3.9 -3.9-3.9 3.9-3.9L38.6 94.5zM23.7 80.4l0.4-0.4 3.9 3.9 -2.2 2.2L23.7 80.4zM26.5 88.2l2.9-2.9 3.9 3.9 -3.9 3.9 -1.8-1.8L26.5 88.2zM29.3 96.1l0.1-0.1 3.9 3.9 -2 2L29.3 96.1zM33.5 107.9l-1.4-4 2.6-2.6 3.9 3.9 -3.9 3.9L33.5 107.9zM36.9 117.5l-1.9-5.2 3.5 3.5L36.9 117.5zM40 126l-2.3-6.5 2.4-2.4 2.3 2.3L40 126zM43.1 117.4l-1.6-1.6 3.4-3.4L43.1 117.4zM46.4 108l-1.1 1.1 -3.9-3.9 3.9-3.9 2.6 2.6L46.4 108zM48.7 101.7l-1.9-1.9 3.9-3.9L50.7 96 48.7 101.7zM52.3 91.5l-1.7 1.7 -3.9-3.9 3.9-3.9 2.8 2.8L52.3 91.5zM54.2 86.1l-2.2-2.2 3.9-3.9 0.3 0.3L54.2 86.1z"/></svg>