<svg xmlns="http://www.w3.org/2000/svg" version="1.1" x="0" y="0" width="49" height="49" viewBox="0 0 49 49" enable-background="new 0 0 49 49" xml:space="preserve"><path fill="#323232" d="M24.5 0C11 0 0 11 0 24.5 0 38 11 49 24.5 49 38 49 49 38 49 24.5 49 11 38 0 24.5 0zM24.5 47C12.1 47 2 36.9 2 24.5 2 12.1 12.1 2 24.5 2 36.9 2 47 12.1 47 24.5 47 36.9 36.9 47 24.5 47zM28.9 13.1c0-2.8-2.3-5-5-5s-5 2.3-5 5v14.6c-1.3 1.3-2 3.1-2 4.9 0 3.9 3.2 7.1 7.1 7.1s7.1-3.2 7.1-7.1c0-1.9-0.8-3.8-2.2-5.1V13.1zM29.1 32.7c0 2.8-2.3 5.1-5.1 5.1 -2.8 0-5.1-2.3-5.1-5.1 0-1.6 0.8-3.1 2-4V13.1c0-1.7 1.4-3 3-3 1.7 0 3 1.4 3 3v15.4C28.3 29.4 29.1 31 29.1 32.7zM25 29.6V13.2c0-0.6-0.4-1-1-1 -0.6 0-1 0.4-1 1v16.4c-1.2 0.4-2 1.5-2 2.8 0 1.7 1.3 3 3 3 1.7 0 3-1.3 3-3C27 31.1 26.2 30 25 29.6z"/><rect x="31" y="12" fill="#323232" width="6" height="2"/><rect x="31" y="16" fill="#323232" width="6" height="2"/><rect x="31" y="20" fill="#323232" width="6" height="2"/><rect x="31" y="24" fill="#323232" width="6" height="2"/></svg>
