<svg xmlns="http://www.w3.org/2000/svg" version="1.1" x="0" y="0" width="32" height="32" viewBox="0 0 32 32" enable-background="new 0 0 32 32" xml:space="preserve"><path fill="#FFFFFF" d="M16 0C7.2 0 0 7.2 0 16c0 8.8 7.2 16 16 16 8.8 0 16-7.2 16-16C32 7.2 24.8 0 16 0zM23.9 12.8c-0.3 6.5-3.5 10.8-11 10.7 -0.1 0-0.2 0-0.2 0 0 0 0 0 0 0 0 0-0.1 0-0.2 0 -0.4 0-4.5-0.4-5.3-1.8 2.5 0.2 4.2-0.4 5.1-1.1 -1-0.3-2.9-0.5-3.3-2.8 0.4 0.1 0.6 0.2 1.3 0.1 -1.3-0.8-2.8-1.5-2.7-3.6 0.3 0.3 1.2 0.5 1.5 0.5 -0.8-0.2-2.1-3.2-1-4.8 2 1.8 4.1 3.5 7.8 3.6 0.2-2.2 1.2-3.7 3.2-4.3 1.8-0.5 3.3 0.3 3.9 1.1 0.7-0.2 1.5-0.5 2.2-0.7 0 0.8-0.6 1.5-0.9 1.7 0.7 0.2 1.4-0.5 1.4-0.5C25.5 11.8 24.6 12.6 23.9 12.8z"/></svg>
