<svg xmlns="http://www.w3.org/2000/svg" version="1.1" x="0" y="0" width="32" height="32" viewBox="0 0 32 32" enable-background="new 0 0 32 32" xml:space="preserve"><path fill="#FFFFFF" d="M16.6 14.5c0.4 0 0.7-0.1 1-0.2 0.3-0.1 0.5-0.3 0.6-0.6 0.1-0.2 0.2-0.5 0.2-0.8 0-0.2-0.1-0.5-0.2-0.7 -0.1-0.2-0.3-0.4-0.6-0.5 -0.3-0.1-0.6-0.2-1-0.2 -0.4 0-0.9 0-1.7 0h-0.3v3h0.6C15.7 14.5 16.2 14.5 16.6 14.5zM18.1 17.1c-0.3-0.1-0.7-0.1-1.2-0.1 -0.5 0-1 0-1.5 0h-0.8v3.5h0.3c1 0 1.7 0 2.2 0 0.4 0 0.8-0.1 1.2-0.2 0.4-0.2 0.6-0.4 0.8-0.6s0.2-0.6 0.2-0.9c0-0.4-0.1-0.8-0.3-1C18.8 17.4 18.5 17.2 18.1 17.1zM16 0C7.2 0 0 7.2 0 16c0 8.8 7.2 16 16 16 8.8 0 16-7.2 16-16C32 7.2 24.8 0 16 0zM22.6 20.5c-0.3 0.5-0.6 1-1.1 1.3 -0.6 0.4-1.2 0.7-1.8 0.9s-1.5 0.3-2.5 0.3h-6.1V9h5.4c1.1 0 2 0 2.5 0.1 0.5 0.1 1 0.2 1.6 0.5 0.5 0.3 0.9 0.6 1.2 1.1 0.3 0.5 0.4 1 0.4 1.6 0 0.7-0.2 1.3-0.5 1.8 -0.4 0.5-0.9 0.9-1.5 1.2v0.1c0.9 0.2 1.6 0.6 2.2 1.1 0.5 0.6 0.8 1.3 0.8 2.3C23 19.4 22.9 20 22.6 20.5z"/></svg>